<?xml version="1.0" encoding="utf-8"?>
<!-- Generator: Adobe Illustrator 23.0.4, SVG Export Plug-In . SVG Version: 6.00 Build 0)  -->
<svg version="1.1" id="图层_1" xmlns="http://www.w3.org/2000/svg" xmlns:xlink="http://www.w3.org/1999/xlink" x="0px" y="0px"
	 viewBox="0 0 16 64" style="enable-background:new 0 0 16 64;" xml:space="preserve">
<style type="text/css">
	.st0{fill:#E6E6E6;}
</style>
<path d="M7.8,27.3l-2.7-2.8L5.6,24l2.2,2.2L10,24l0.6,0.6L7.8,27.3z M10.6,24.5L10,24c1.2-1.2,1.2-3.2,0-4.4s-3.2-1.3-4.4-0.1
	c-1.2,1.3-1.2,3.3,0,4.5l-0.5,0.5c-1.6-1.5-1.6-4,0-5.5s4-1.5,5.6,0S12.1,23,10.6,24.5L10.6,24.5z M7.8,22.5c-0.4,0-0.8-0.4-0.8-0.8
	C7,21.3,7.4,21,7.8,21c0.4,0,0.8,0.4,0.8,0.8C8.6,22.2,8.3,22.5,7.8,22.5z M5.4,29.3c-0.2-0.1-0.2-0.4,0-0.6c0.1-0.2,0.4-0.2,0.6,0
	l0,0l2,2l6.2-6.2h-1.6v-0.8h2c0.6,0,1.2,0.5,1.2,1.2l0,0V32c0,0.6-0.5,1.2-1.2,1.2H1.2C0.6,33.2,0,32.7,0,32l0,0v-7.1
	c0-0.6,0.5-1.2,1.2-1.2l0,0h2v0.8h-2c-0.3,0-0.4,0.2-0.4,0.4l0,0v5.6l3.7-3.7c0.2-0.2,0.4-0.2,0.6,0l0,0c0.2,0.2,0.2,0.4,0,0.6
	l-4.3,4.1l0,0V32c0,0.2,0.2,0.4,0.4,0.4h7.3L5.4,29.3L5.4,29.3z M14.5,32.4c0.2,0,0.4-0.2,0.4-0.4v-7.1l0,0l-6.4,6.4l1,1
	c0,0,0,0,0,0.1H14.5L14.5,32.4z"/>
<path class="st0" d="M6.9,58.1L6.9,58.1C6,57.6,5.5,57,5.1,56v-0.1c0-0.2,0.1-0.3,0.2-0.4h0.1c0.1,0,0.2,0.1,0.3,0.2v0.1
	c0.3,0.8,0.7,1.3,1.4,1.7c0.1,0,0.1,0.1,0.2,0.2c0.1,0.2,0,0.3-0.2,0.4C7,58.1,7,58.1,6.9,58.1C7,58.1,6.9,58.1,6.9,58.1z M5.2,55.4
	c-0.1,0-0.3-0.1-0.3-0.2c-0.1-0.2,0-0.4,0.2-0.4h0.1c0.1,0,0.3,0.1,0.3,0.2c0,0.1,0,0.2,0,0.3S5.4,55.4,5.2,55.4
	C5.3,55.4,5.2,55.4,5.2,55.4z"/>
<path d="M11.2,59.5c1.5-0.9,2.5-2.6,2.5-4.5c0-2.9-2.4-5.3-5.3-5.3S3.1,52.1,3.1,55c0,1.9,1,3.6,2.5,4.5l-2.2,2.7
	c-0.1,0.3-0.2,0.6-0.2,0.7c0,0.8,0.4,1.2,1.1,1.2h8.1c0.6,0,1.1-0.4,1.1-1.2c0-0.3-0.1-0.5-0.2-0.7C13.4,62.3,11.2,59.5,11.2,59.5z
	 M4.1,55.1c0-2.4,1.9-4.3,4.3-4.3s4.3,1.9,4.3,4.3c0,2.4-1.9,4.3-4.3,4.3S4.1,57.4,4.1,55.1z"/>
<path class="st0" d="M10.3,60c-0.6,0.2-1.2,0.4-1.9,0.4S7.1,60.3,6.5,60l-2.1,2.7c0,0.1,0,0.1,0,0.2c0,0.2,0.1,0.4,0.4,0.4h7.3
	c0.2,0,0.4-0.2,0.4-0.4c0-0.1,0-0.1,0-0.2S10.3,60,10.3,60z"/>
<path d="M7.9,41.9L1.1,38l6.8-3.8l6.8,3.8L7.9,41.9z M3.1,38l4.8,2.8l4.8-2.8l-4.8-2.7L3.1,38z"/>
<path d="M7.4,49v-7.9l6.8-3.9V45L7.4,49z M8.4,41.7v5.6l4.8-2.9v-5.5L8.4,41.7z"/>
<path d="M8.4,49l-6.8-4v-7.8l6.8,3.9V49z M2.6,44.4l4.8,2.9v-5.6l-4.8-2.8L2.6,44.4z M7.9,36.4c0.8,0,1.4-0.6,1.4-1.4
	c0.1-0.8-0.6-1.5-1.4-1.5s-1.4,0.6-1.4,1.4C6.5,35.7,7.1,36.4,7.9,36.4L7.9,36.4z"/>
<path d="M7.9,42.5c0.8,0,1.4-0.6,1.4-1.4s-0.6-1.4-1.4-1.4s-1.4,0.6-1.4,1.4C6.5,41.8,7.1,42.5,7.9,42.5L7.9,42.5z M7.9,49.5
	c0.8,0,1.4-0.6,1.4-1.4c0-0.8-0.6-1.4-1.4-1.4s-1.4,0.6-1.4,1.4l0,0C6.5,48.9,7.1,49.5,7.9,49.5z M2.1,39.2c0.8,0,1.4-0.6,1.4-1.4
	s-0.6-1.4-1.4-1.4S0.7,37,0.7,37.8C0.7,38.6,1.3,39.2,2.1,39.2L2.1,39.2z M13.8,39.2c0.8,0,1.4-0.6,1.4-1.4s-0.6-1.4-1.4-1.4
	s-1.4,0.6-1.4,1.4l0,0C12.3,38.6,13,39.2,13.8,39.2z M2.1,46c0.8,0,1.4-0.6,1.4-1.4c0-0.8-0.6-1.4-1.4-1.4s-1.4,0.6-1.4,1.4
	C0.7,45.3,1.3,45.9,2.1,46L2.1,46z M13.8,46c0.8,0,1.4-0.6,1.4-1.4c0-0.8-0.6-1.4-1.4-1.4c-0.8,0-1.4,0.6-1.4,1.4
	C12.3,45.3,13,45.9,13.8,46L13.8,46z"/>
</svg>
