<?xml version="1.0" encoding="utf-8"?>
<!-- Generator: Adobe Illustrator 23.0.4, SVG Export Plug-In . SVG Version: 6.00 Build 0)  -->
<svg version="1.1" id="图层_1" xmlns="http://www.w3.org/2000/svg" xmlns:xlink="http://www.w3.org/1999/xlink" x="0px" y="0px"
	 viewBox="0 0 128 128" style="enable-background:new 0 0 128 128;" xml:space="preserve">
<style type="text/css">
	.st0{fill:#3D3D3D;}
</style>
<path class="st0" d="M18.8,23.2l-2.9-2.9l0.6-0.6l2.3,2.3l2.3-2.3l0.6,0.6L18.8,23.2z M21.7,20.3l-0.6-0.6c1.3-1.3,1.3-3.3,0-4.6
	c-1.3-1.3-3.3-1.3-4.6,0c-1.3,1.3-1.3,3.3,0,4.6l-0.6,0.6c-1.6-1.6-1.6-4.2,0-5.8s4.2-1.6,5.8,0S23.3,18.7,21.7,20.3L21.7,20.3z
	 M18.8,18.2c-0.5,0-0.8-0.4-0.8-0.8s0.4-0.8,0.8-0.8s0.8,0.4,0.8,0.8S19.3,18.2,18.8,18.2z M16.3,25.2c-0.2-0.2-0.2-0.4,0-0.6
	s0.4-0.2,0.6,0c0,0,0,0,0,0l2.1,2.1l6.5-6.5h-1.7v-0.8h2c0.7,0,1.2,0.5,1.2,1.2c0,0,0,0,0,0V28c0,0.7-0.6,1.2-1.2,1.2H11.9
	c-0.7,0-1.2-0.5-1.2-1.2c0,0,0,0,0,0v-7.4c0-0.7,0.5-1.2,1.2-1.2c0,0,0,0,0,0h2v0.8h-2c-0.2,0-0.4,0.2-0.4,0.4c0,0,0,0,0,0v5.8
	l3.8-3.8c0.2-0.2,0.4-0.2,0.6,0c0,0,0,0,0,0c0.2,0.2,0.2,0.4,0,0.6l-4.4,4.4c0,0,0,0,0,0V28c0,0.2,0.2,0.4,0.4,0.4h7.6L16.3,25.2
	L16.3,25.2z M25.8,28.4c0.2,0,0.4-0.2,0.4-0.4v-7.3c0,0,0,0,0,0l-6.6,6.6l1,1c0,0,0,0,0.1,0.1H25.8L25.8,28.4z"/>
</svg>
